<svg xmlns="http://www.w3.org/2000/svg" viewBox="-46 -46 92 92"><path fill="#f7f7f7" d="M -44.5 0 A 44.5 44.5 0 0 0 44.5 0" /><path fill="#f20d0d" d="M -44.5 0 A 44.5 44.5 0 0 1 44.5 0" /><circle fill="#b3b3b3" r="16"/><circle fill="#f2f2f2" r="10"/><path fill="#333333" d="M 0 0 0 -5 -2 -5 -5 -2 -5 0 Z" /><path fill="none" stroke="#333333" stroke-width="3" d="M -44.5 0 A 44.5 44.5 0 0 1 44.5 0 44.5 44.5 0 0 1 -44.5 0 L -16 0 A 16 16 0 0 0 16 0 A 16 16 0 0 0 -16 0 M -10 0 A 10 10 0 0 0 10 0 A 10 10 0 0 0 -10 0 M 16 0 L 44.5 0" /></svg>